<svg width="116" height="22" viewBox="0 0 116 22" fill="none" xmlns="http://www.w3.org/2000/svg">
<path d="M37.1919 19.3417C35.5235 19.3417 34.0841 19.0146 32.8083 18.3603C31.5325 17.7061 30.5512 16.7574 29.8642 15.547C29.1772 14.3366 28.8174 12.8973 28.8174 11.2616C28.8174 9.626 29.1772 8.18664 29.8642 6.97626C30.5512 5.73318 31.5325 4.81722 32.8083 4.16296C34.0841 3.50871 35.5562 3.14886 37.1919 3.14886C38.3041 3.14886 39.3182 3.27972 40.1687 3.50871C41.052 3.73769 41.8371 4.09754 42.5568 4.58823V7.79408C41.9025 7.27068 41.1501 6.87812 40.3323 6.64913C39.5145 6.38743 38.5658 6.25658 37.4863 6.25658C36.5049 6.25658 35.5889 6.45286 34.8038 6.87812C34.0187 7.27068 33.3972 7.85951 32.9392 8.6119C32.4812 9.3643 32.2522 10.2475 32.2522 11.2616C32.2522 12.2757 32.4485 13.1917 32.8738 13.9441C33.299 14.6965 33.8879 15.2853 34.673 15.7106C35.4581 16.1358 36.3413 16.3321 37.3227 16.3321C38.2387 16.3321 39.0238 16.1686 39.7107 15.8414V12.8319H37.1919V10.3457H42.9493V17.8042C41.5099 18.851 39.5799 19.3417 37.1919 19.3417Z" fill="#FBFBFB"/>
<path d="M43.7676 8.38287H47.0061V9.92037C47.4314 9.39696 48.0202 9.00441 48.8054 8.74271C49.5577 8.44829 50.441 8.31744 51.4224 8.31744V10.869C50.4083 10.869 49.4923 11.0326 48.7072 11.327C47.9221 11.6214 47.3987 12.1121 47.1043 12.7337V19.0145H43.7676V8.38287Z" fill="#FBFBFB"/>
<path d="M57.8331 19.3417C55.8049 19.3417 54.202 18.851 53.0243 17.8696C51.8466 16.8882 51.2578 15.4816 51.2578 13.7151C51.2578 11.9486 51.7812 10.5747 52.7953 9.56057C53.8421 8.54648 55.3469 8.02307 57.277 8.02307C58.5528 8.02307 59.6323 8.25206 60.5155 8.74275C61.3988 9.20073 62.0857 9.8877 62.5437 10.7055C63.0017 11.5233 63.2307 12.472 63.2307 13.5188V14.86H54.4637C54.6927 16.234 55.9685 16.8882 58.2911 16.8882C58.978 16.8882 59.665 16.8228 60.3847 16.7247C61.1044 16.5938 61.7259 16.4303 62.282 16.234V18.5893C61.7586 18.8183 61.1044 18.9819 60.2865 19.1127C59.4687 19.2763 58.6509 19.3417 57.8331 19.3417ZM60.0903 12.7337C60.0576 12.014 59.7958 11.4906 59.3052 11.0981C58.8145 10.7055 58.1602 10.5092 57.277 10.5092C56.4264 10.5092 55.7722 10.7055 55.2815 11.0981C54.7908 11.4906 54.5291 12.0467 54.4964 12.7337H60.0903Z" fill="#FBFBFB"/>
<path d="M70.1007 19.3417C68.0725 19.3417 66.4695 18.851 65.2919 17.8696C64.1142 16.8882 63.5254 15.4816 63.5254 13.7151C63.5254 11.9486 64.0488 10.5747 65.0629 9.56057C66.1097 8.54648 67.6145 8.02307 69.5445 8.02307C70.8203 8.02307 71.8999 8.25206 72.7831 8.74275C73.6664 9.20073 74.3533 9.8877 74.8113 10.7055C75.2693 11.5233 75.4983 12.472 75.4983 13.5188V14.86H66.7312C66.9602 16.234 68.236 16.8882 70.5586 16.8882C71.2456 16.8882 71.9326 16.8228 72.6523 16.7247C73.3719 16.5938 73.9935 16.4303 74.5496 16.234V18.5893C74.0262 18.8183 73.3719 18.9819 72.5541 19.1127C71.7363 19.2763 70.9185 19.3417 70.1007 19.3417ZM72.3578 12.7337C72.3251 12.014 72.0634 11.4906 71.5727 11.0981C71.082 10.7055 70.4278 10.5092 69.5445 10.5092C68.694 10.5092 68.0398 10.7055 67.5491 11.0981C67.0584 11.4906 66.7967 12.0467 66.764 12.7337H72.3578Z" fill="#FBFBFB"/>
<path d="M76.2832 8.38285H79.5218V9.69137C80.0125 9.13525 80.6013 8.74269 81.2555 8.48099C81.9425 8.18658 82.6295 8.05573 83.3819 8.05573C84.8212 8.05573 85.9008 8.44828 86.6204 9.23339C87.3401 10.0185 87.7 11.0326 87.7 12.3738V19.0145H84.3633V12.7337C84.3633 11.3597 83.7417 10.6727 82.4659 10.6727C81.9098 10.6727 81.3864 10.8036 80.8957 11.098C80.405 11.3597 79.9797 11.7523 79.6526 12.3084V19.0145H76.3159V8.38285H76.2832Z" fill="#FBFBFB"/>
<path d="M90.6444 6.74721C90.121 6.74721 89.6957 6.58365 89.3359 6.22381C88.9761 5.89668 88.8125 5.4387 88.8125 4.94801C88.8125 4.45732 88.9761 4.03205 89.3359 3.67221C89.6957 3.31237 90.121 3.1488 90.6444 3.1488C91.1678 3.1488 91.5931 3.31237 91.9529 3.67221C92.3128 3.99934 92.4763 4.4246 92.4763 4.94801C92.4763 5.47141 92.3128 5.89668 91.9529 6.22381C91.5931 6.58365 91.1678 6.74721 90.6444 6.74721ZM88.9433 8.38285H92.3128V19.0145H88.9433V8.38285Z" fill="#FBFBFB"/>
<path d="M98.0373 19.3417C97.2522 19.3417 96.369 19.2436 95.453 19.08C94.537 18.9164 93.8501 18.6874 93.3267 18.3603V15.7433C93.9155 16.1031 94.6352 16.3975 95.453 16.5938C96.2708 16.8228 97.0559 16.9209 97.7429 16.9209C98.3644 16.9209 98.7897 16.8555 99.0841 16.7574C99.3785 16.6592 99.5094 16.463 99.5094 16.1686C99.5094 15.9396 99.4439 15.776 99.2804 15.6452C99.1168 15.4816 98.8551 15.3834 98.528 15.2526C98.2009 15.1217 97.6447 14.9582 96.8924 14.7292C95.9764 14.4675 95.2894 14.2058 94.766 13.9441C94.2753 13.6497 93.8828 13.3225 93.6211 12.8973C93.3594 12.472 93.2285 11.9486 93.2285 11.2943C93.2285 10.1821 93.6538 9.36429 94.537 8.80818C95.4203 8.25206 96.6306 7.95764 98.1354 7.95764C98.8878 7.95764 99.6402 8.02307 100.425 8.18663C101.21 8.3502 101.832 8.54647 102.257 8.77546V11.3271C101.832 11.0326 101.276 10.8037 100.556 10.6401C99.8692 10.4765 99.215 10.3784 98.5607 10.3784C97.9392 10.3784 97.4812 10.4438 97.1541 10.542C96.8269 10.6728 96.6634 10.8691 96.6634 11.1962C96.6634 11.4906 96.8269 11.6869 97.1213 11.8505C97.4485 12.014 98.0373 12.1776 98.9205 12.4066L99.3785 12.5047C100.294 12.7664 101.047 13.0281 101.538 13.3553C102.061 13.6497 102.421 14.0095 102.617 14.4348C102.846 14.86 102.944 15.3834 102.944 16.005C102.944 16.9864 102.519 17.7715 101.668 18.3603C100.851 19.08 99.6402 19.3417 98.0373 19.3417Z" fill="#FBFBFB"/>
<path d="M103.729 2.62543H107.066V9.59325C107.557 9.06985 108.146 8.67729 108.767 8.44831C109.389 8.1866 110.076 8.05575 110.795 8.05575C112.235 8.05575 113.314 8.44831 114.034 9.23341C114.754 10.0185 115.114 11.0326 115.114 12.3738V19.0145H111.777V12.7337C111.777 11.3597 111.155 10.6728 109.879 10.6728C109.323 10.6728 108.8 10.8036 108.309 11.098C107.819 11.3597 107.393 11.7523 107.066 12.3084V19.0145H103.729V2.62543Z" fill="#FBFBFB"/>
<path fill-rule="evenodd" clip-rule="evenodd" d="M17.3677 5.76586C17.3677 8.57916 15.0778 10.8691 12.2645 10.8691C9.45122 10.8691 7.16132 8.57916 7.16132 5.76586C7.16132 2.95255 9.45122 0.662659 12.2645 0.662659C15.0778 0.662659 17.3677 2.95255 17.3677 5.76586ZM0.389769 10.5092C5.95094 10.1494 10.7924 14.3039 11.2504 19.8651C11.2831 20.4539 11.2831 21.01 11.2504 21.5661C5.68924 21.926 0.847748 17.7715 0.389769 12.2103C0.357056 11.6214 0.357056 11.0653 0.389769 10.5092ZM14.8488 21.3699C20.41 20.9119 24.5645 16.0704 24.2047 10.5092C23.6486 10.4765 23.0925 10.4438 22.5036 10.5092C16.9424 10.9672 12.7879 15.8087 13.1478 21.3699C13.7039 21.4026 14.26 21.4026 14.8488 21.3699Z" fill="#FBFBFB"/>
</svg>
