<svg width="175" height="175" viewBox="0 0 175 175" fill="none" xmlns="http://www.w3.org/2000/svg">
<rect x="20" y="53" width="125" height="68" fill="#0C0C0C"/>
<path d="M87.4 0C39.2084 0 0 39.2084 0 87.4C0 135.592 39.2084 174.8 87.4 174.8C135.595 174.8 174.8 135.592 174.8 87.4C174.8 39.2084 135.595 0 87.4 0ZM125.297 104.633C133.798 112.18 135.565 114.874 135.854 115.334C139.376 120.92 131.947 121.6 131.947 121.6H116.291C116.291 121.6 112.48 121.642 109.223 119.483C103.915 116.006 98.3554 109.265 94.449 110.436C91.1696 111.416 91.2 115.847 91.2 119.635C91.2 120.992 90.0334 121.6 87.4 121.6C84.7666 121.6 83.6722 121.6 82.5056 121.6C73.929 121.6 64.6228 118.712 55.3394 109.011C42.2066 95.2964 30.6888 67.6704 30.6888 67.6704C30.6888 67.6704 30.0086 66.2796 30.7496 65.4322C31.5894 64.4822 33.8732 64.6038 33.8732 64.6038L49.0542 64.6C49.0542 64.6 50.483 64.8698 51.509 65.5918C52.3564 66.1846 52.8276 67.317 52.8276 67.317C52.8276 67.317 55.3774 75.7378 58.6264 81.1072C64.9724 91.5876 67.925 91.8536 70.0796 90.725C73.226 89.091 72.2 77.9494 72.2 77.9494C72.2 77.9494 72.3406 73.1652 70.699 71.0334C69.4336 69.3842 67.013 68.5064 65.9566 68.3696C65.1016 68.2594 66.5304 66.7622 68.3506 65.9072C70.7826 64.8242 74.0924 64.5468 79.8 64.6C84.2422 64.6418 85.5228 64.9078 87.2556 65.3068C92.4958 66.5152 91.2 69.7034 91.2 80.8982C91.2 84.4854 90.706 89.528 93.4116 91.2C94.5782 91.922 98.5758 92.8036 105.689 81.2516C109.068 75.772 111.754 66.6824 111.754 66.6824C111.754 66.6824 112.309 65.683 113.172 65.189C114.053 64.6836 114.027 64.695 115.235 64.695C116.443 64.695 128.562 64.6 131.222 64.6C133.878 64.6 136.371 64.5696 136.8 66.1276C137.416 68.3658 134.839 76.0342 128.311 84.3562C117.583 98.0134 116.394 96.7366 125.297 104.633Z" fill="white"/>
</svg>
